# xmcd
#
# Track frame offsets: 
#        150
#        16727
#        33904
#        49656
#        60908
#        77935
#        95037
#        112214
#        129991
#        150393
#        168395
#        186097
#
# Disc length: 2888 seconds
#
# Revision: 3
# Processed by: cddbd v1.5.1PL0 Copyright (c) Steve Scherf et al.
# Submitted via: ExactAudioCopy v0.90b4
#
DISCID=8f0b460c
DTITLE=Ricardo Arjona - Animal Nocturno
DYEAR=1993
DGENRE=Country
TTITLE0=Libre
TTITLE1=Primera Vez
TTITLE2=Mujeres
TTITLE3=Tiempo en una Botella
TTITLE4=Como Olvidarte
TTITLE5=Solo
TTITLE6=Baila Conmigo
TTITLE7=Quien Diria
TTITLE8=Te Encontraré
TTITLE9=Así de Ilogico
TTITLE10=Animal Nocturno
TTITLE11=Jesus es Verbo, no Sustantivo
EXTD=ID3G:   2
EXTT0=
EXTT1=
EXTT2=
EXTT3=
EXTT4=
EXTT5=
EXTT6=
EXTT7=
EXTT8=
EXTT9=
EXTT10=
EXTT11=
PLAYORDER=
